%TF.GenerationSoftware,KiCad,Pcbnew,9.0.4*%
%TF.CreationDate,2025-12-06T16:41:29+03:30*%
%TF.ProjectId,Tiny_Solar_Power_Supply002,54696e79-5f53-46f6-9c61-725f506f7765,rev?*%
%TF.SameCoordinates,Original*%
%TF.FileFunction,Copper,L2,Bot*%
%TF.FilePolarity,Positive*%
%FSLAX46Y46*%
G04 Gerber Fmt 4.6, Leading zero omitted, Abs format (unit mm)*
G04 Created by KiCad (PCBNEW 9.0.4) date 2025-12-06 16:41:29*
%MOMM*%
%LPD*%
G01*
G04 APERTURE LIST*
G04 Aperture macros list*
%AMRoundRect*
0 Rectangle with rounded corners*
0 $1 Rounding radius*
0 $2 $3 $4 $5 $6 $7 $8 $9 X,Y pos of 4 corners*
0 Add a 4 corners polygon primitive as box body*
4,1,4,$2,$3,$4,$5,$6,$7,$8,$9,$2,$3,0*
0 Add four circle primitives for the rounded corners*
1,1,$1+$1,$2,$3*
1,1,$1+$1,$4,$5*
1,1,$1+$1,$6,$7*
1,1,$1+$1,$8,$9*
0 Add four rect primitives between the rounded corners*
20,1,$1+$1,$2,$3,$4,$5,0*
20,1,$1+$1,$4,$5,$6,$7,0*
20,1,$1+$1,$6,$7,$8,$9,0*
20,1,$1+$1,$8,$9,$2,$3,0*%
G04 Aperture macros list end*
%TA.AperFunction,ComponentPad*%
%ADD10R,1.700000X1.700000*%
%TD*%
%TA.AperFunction,ComponentPad*%
%ADD11C,1.700000*%
%TD*%
%TA.AperFunction,ComponentPad*%
%ADD12RoundRect,0.250000X0.550000X0.550000X-0.550000X0.550000X-0.550000X-0.550000X0.550000X-0.550000X0*%
%TD*%
%TA.AperFunction,ComponentPad*%
%ADD13C,1.600000*%
%TD*%
%TA.AperFunction,ViaPad*%
%ADD14C,0.800000*%
%TD*%
%TA.AperFunction,Conductor*%
%ADD15C,0.250000*%
%TD*%
G04 APERTURE END LIST*
D10*
%TO.P,J1,1,Pin_1*%
%TO.N,GNDD*%
X141500000Y-97790000D03*
D11*
%TO.P,J1,2,Pin_2*%
%TO.N,/OUT_P*%
X141500000Y-100330000D03*
%TD*%
D10*
%TO.P,J2,1,Pin_1*%
%TO.N,/BAT_P*%
X115425000Y-102850000D03*
D11*
%TO.P,J2,2,Pin_2*%
%TO.N,GNDD*%
X115425000Y-100310000D03*
%TD*%
D12*
%TO.P,J3,1,Pin_1*%
%TO.N,Net-(J3-Pin_1)*%
X126275000Y-98025000D03*
D13*
%TO.P,J3,2,Pin_2*%
%TO.N,/BAT_P*%
X118655000Y-98025000D03*
%TD*%
D10*
%TO.P,J4,1,Pin_1*%
%TO.N,/SOLAR_P*%
X115425000Y-96675000D03*
D11*
%TO.P,J4,2,Pin_2*%
%TO.N,GNDD*%
X115425000Y-94135000D03*
%TD*%
D14*
%TO.N,GNDD*%
X120725000Y-103950000D03*
X131225000Y-97775000D03*
X134575000Y-95525000D03*
%TO.N,Net-(U1-FB)*%
X129562500Y-100250000D03*
X131700000Y-100875000D03*
%TO.N,Net-(D1-A)*%
X130275000Y-96919599D03*
X131493077Y-95727520D03*
%TD*%
D15*
%TO.N,GNDD*%
X118240000Y-103125000D02*
X115425000Y-100310000D01*
X119900000Y-103125000D02*
X118240000Y-103125000D01*
X132325000Y-97775000D02*
X134575000Y-95525000D01*
X120725000Y-103950000D02*
X119900000Y-103125000D01*
X131225000Y-97775000D02*
X132325000Y-97775000D01*
%TO.N,Net-(U1-FB)*%
X131700000Y-100875000D02*
X130187500Y-100875000D01*
X130187500Y-100875000D02*
X129562500Y-100250000D01*
%TO.N,Net-(D1-A)*%
X130300998Y-96919599D02*
X131493077Y-95727520D01*
X130275000Y-96919599D02*
X130300998Y-96919599D01*
%TD*%
%TA.AperFunction,Conductor*%
%TO.N,GNDD*%
G36*
X142915344Y-91519352D02*
G01*
X142935986Y-91535986D01*
X143673047Y-92273047D01*
X143705346Y-92332198D01*
X143705981Y-92332046D01*
X143707118Y-92336784D01*
X143761494Y-92504139D01*
X143761496Y-92504145D01*
X143824756Y-92628298D01*
X143841386Y-92660936D01*
X143944818Y-92803298D01*
X143944820Y-92803300D01*
X144069248Y-92927728D01*
X144080778Y-92936105D01*
X144123443Y-92991436D01*
X144131888Y-93037283D01*
X144056958Y-103823180D01*
X144036808Y-103890082D01*
X144020643Y-103910000D01*
X143903901Y-104026742D01*
X143797635Y-104173005D01*
X143715558Y-104334088D01*
X143659688Y-104506036D01*
X143631407Y-104684598D01*
X143631407Y-104865401D01*
X143659689Y-105043964D01*
X143678228Y-105101022D01*
X143680223Y-105170864D01*
X143647978Y-105227021D01*
X143405069Y-105469931D01*
X143343746Y-105503416D01*
X143317388Y-105506250D01*
X113757612Y-105506250D01*
X113690573Y-105486565D01*
X113669931Y-105469931D01*
X113223215Y-105023215D01*
X113189730Y-104961892D01*
X113186896Y-104935534D01*
X113186896Y-104860518D01*
X113160363Y-104693002D01*
X113158902Y-104683776D01*
X113158901Y-104683772D01*
X113158901Y-104683771D01*
X113106069Y-104521172D01*
X113100000Y-104482854D01*
X113100000Y-101952135D01*
X114074500Y-101952135D01*
X114074500Y-103747870D01*
X114074501Y-103747876D01*
X114080908Y-103807483D01*
X114131202Y-103942328D01*
X114131206Y-103942335D01*
X114217452Y-104057544D01*
X114217455Y-104057547D01*
X114332664Y-104143793D01*
X114332671Y-104143797D01*
X114467517Y-104194091D01*
X114467516Y-104194091D01*
X114474444Y-104194835D01*
X114527127Y-104200500D01*
X116322872Y-104200499D01*
X116382483Y-104194091D01*
X116517331Y-104143796D01*
X116632546Y-104057546D01*
X116718796Y-103942331D01*
X116769091Y-103807483D01*
X116775500Y-103747873D01*
X116775500Y-103249667D01*
X118348000Y-103249667D01*
X119597437Y-103249667D01*
X119598350Y-103248178D01*
X119709373Y-103095367D01*
X119722010Y-103080571D01*
X119850000Y-102952581D01*
X119850000Y-102628977D01*
X120848000Y-102628977D01*
X121025399Y-102657075D01*
X121044319Y-102661617D01*
X121223958Y-102719985D01*
X121241935Y-102727431D01*
X121410232Y-102813183D01*
X121426822Y-102823350D01*
X121579633Y-102934373D01*
X121594429Y-102947010D01*
X121727990Y-103080571D01*
X121740627Y-103095367D01*
X121851650Y-103248178D01*
X121852563Y-103249667D01*
X122350000Y-103249667D01*
X123348000Y-103249667D01*
X124850000Y-103249667D01*
X125848000Y-103249667D01*
X127350000Y-103249667D01*
X128348000Y-103249667D01*
X129850000Y-103249667D01*
X130848000Y-103249667D01*
X132350000Y-103249667D01*
X132350000Y-102660682D01*
X132321949Y-102672301D01*
X132316272Y-102674491D01*
X132281620Y-102686890D01*
X132275845Y-102688798D01*
X132228952Y-102703025D01*
X132223084Y-102704649D01*
X132187349Y-102713601D01*
X132181408Y-102714935D01*
X131959357Y-102759104D01*
X131953360Y-102760145D01*
X131916929Y-102765549D01*
X131910888Y-102766294D01*
X131862116Y-102771097D01*
X131856046Y-102771545D01*
X131819274Y-102773351D01*
X131813191Y-102773500D01*
X131586809Y-102773500D01*
X131580726Y-102773351D01*
X131543954Y-102771545D01*
X131537884Y-102771097D01*
X131489112Y-102766294D01*
X131483071Y-102765549D01*
X131446640Y-102760145D01*
X131440643Y-102759104D01*
X131218592Y-102714935D01*
X131212651Y-102713601D01*
X131176916Y-102704649D01*
X131171048Y-102703025D01*
X131124155Y-102688798D01*
X131118380Y-102686890D01*
X131083728Y-102674491D01*
X131078051Y-102672301D01*
X130868905Y-102585671D01*
X130863344Y-102583206D01*
X130848000Y-102575949D01*
X130848000Y-103249667D01*
X129850000Y-103249667D01*
X129850000Y-102463174D01*
X129786315Y-102450507D01*
X129780374Y-102449173D01*
X129744645Y-102440223D01*
X129738778Y-102438599D01*
X129691881Y-102424372D01*
X129686104Y-102422463D01*
X129651441Y-102410060D01*
X129645763Y-102407870D01*
X129486649Y-102341962D01*
X129481084Y-102339495D01*
X129447780Y-102323743D01*
X129442339Y-102321004D01*
X129399120Y-102297900D01*
X129393827Y-102294901D01*
X129362260Y-102275979D01*
X129357122Y-102272726D01*
X129213936Y-102177053D01*
X129208958Y-102173547D01*
X129179384Y-102151613D01*
X129174590Y-102147871D01*
X129136706Y-102116782D01*
X129132094Y-102112804D01*
X129114108Y-102096502D01*
X129081092Y-102089935D01*
X129075151Y-102088601D01*
X129039416Y-102079649D01*
X129033548Y-102078025D01*
X128986655Y-102063798D01*
X128980880Y-102061890D01*
X128946228Y-102049491D01*
X128940551Y-102047301D01*
X128731405Y-101960671D01*
X128725844Y-101958206D01*
X128692562Y-101942466D01*
X128687123Y-101939729D01*
X128643901Y-101916627D01*
X128638606Y-101913627D01*
X128607012Y-101894691D01*
X128601868Y-101891434D01*
X128502394Y-101824967D01*
X133348000Y-101824967D01*
X133348000Y-103249667D01*
X134850000Y-103249667D01*
X135848000Y-103249667D01*
X137350000Y-103249667D01*
X138348000Y-103249667D01*
X139850000Y-103249667D01*
X139850000Y-102587510D01*
X140848000Y-102587510D01*
X140848000Y-103249667D01*
X142350000Y-103249667D01*
X142350000Y-102523076D01*
X142345440Y-102524658D01*
X142106007Y-102602455D01*
X142101347Y-102603869D01*
X142073005Y-102611862D01*
X142068300Y-102613089D01*
X142030183Y-102622242D01*
X142025423Y-102623287D01*
X141996523Y-102629036D01*
X141991728Y-102629892D01*
X141743059Y-102669277D01*
X141738236Y-102669944D01*
X141709003Y-102673404D01*
X141704165Y-102673881D01*
X141665086Y-102676959D01*
X141660221Y-102677246D01*
X141630769Y-102678404D01*
X141625897Y-102678500D01*
X141374103Y-102678500D01*
X141369231Y-102678404D01*
X141339779Y-102677246D01*
X141334914Y-102676959D01*
X141295835Y-102673881D01*
X141290997Y-102673404D01*
X141261764Y-102669944D01*
X141256941Y-102669277D01*
X141008272Y-102629892D01*
X141003477Y-102629036D01*
X140974577Y-102623287D01*
X140969817Y-102622242D01*
X140931700Y-102613089D01*
X140926995Y-102611862D01*
X140898653Y-102603869D01*
X140893993Y-102602455D01*
X140848000Y-102587510D01*
X139850000Y-102587510D01*
X139850000Y-102001280D01*
X139750356Y-101901636D01*
X139746986Y-101898132D01*
X139727012Y-101876527D01*
X139723778Y-101872888D01*
X139698317Y-101843081D01*
X139695227Y-101839316D01*
X139676968Y-101816157D01*
X139674025Y-101812269D01*
X139627089Y-101747667D01*
X138348000Y-101747667D01*
X138348000Y-103249667D01*
X137350000Y-103249667D01*
X137350000Y-101747667D01*
X135848000Y-101747667D01*
X135848000Y-103249667D01*
X134850000Y-103249667D01*
X134850000Y-101747667D01*
X133391093Y-101747667D01*
X133389729Y-101750377D01*
X133366627Y-101793599D01*
X133363627Y-101798894D01*
X133348000Y-101824967D01*
X128502394Y-101824967D01*
X128413631Y-101765657D01*
X128408655Y-101762153D01*
X128389123Y-101747667D01*
X128348000Y-101747667D01*
X128348000Y-103249667D01*
X127350000Y-103249667D01*
X127350000Y-101747667D01*
X125848000Y-101747667D01*
X125848000Y-103249667D01*
X124850000Y-103249667D01*
X124850000Y-101747667D01*
X123348000Y-101747667D01*
X123348000Y-103249667D01*
X122350000Y-103249667D01*
X122350000Y-101747667D01*
X120848000Y-101747667D01*
X120848000Y-102628977D01*
X119850000Y-102628977D01*
X119850000Y-101747667D01*
X118348000Y-101747667D01*
X118348000Y-103249667D01*
X116775500Y-103249667D01*
X116775499Y-101952128D01*
X116769091Y-101892517D01*
X116749248Y-101839316D01*
X116718797Y-101757671D01*
X116718793Y-101757664D01*
X116632547Y-101642455D01*
X116632544Y-101642452D01*
X116517335Y-101556206D01*
X116517328Y-101556202D01*
X116382482Y-101505908D01*
X116382483Y-101505908D01*
X116322883Y-101499501D01*
X116322881Y-101499500D01*
X116322873Y-101499500D01*
X116322865Y-101499500D01*
X116312309Y-101499500D01*
X116245270Y-101479815D01*
X116224628Y-101463181D01*
X115554408Y-100792962D01*
X115617993Y-100775925D01*
X115732007Y-100710099D01*
X115825099Y-100617007D01*
X115890925Y-100502993D01*
X115907962Y-100439409D01*
X116540270Y-101071717D01*
X116540270Y-101071716D01*
X116579622Y-101017554D01*
X116676095Y-100828217D01*
X116741757Y-100626130D01*
X116741757Y-100626127D01*
X116775000Y-100416246D01*
X116775000Y-100303526D01*
X118348000Y-100303526D01*
X118348000Y-100749667D01*
X119850000Y-100749667D01*
X120848000Y-100749667D01*
X122350000Y-100749667D01*
X123348000Y-100749667D01*
X124850000Y-100749667D01*
X124850000Y-100323499D01*
X125848000Y-100323499D01*
X125848000Y-100749667D01*
X127350000Y-100749667D01*
X127350000Y-100243028D01*
X127265863Y-100270909D01*
X127259386Y-100272861D01*
X127219884Y-100283599D01*
X127213309Y-100285195D01*
X127160055Y-100296593D01*
X127153411Y-100297827D01*
X127113006Y-100304196D01*
X127106299Y-100305066D01*
X126963787Y-100319624D01*
X126960639Y-100319905D01*
X126941595Y-100321361D01*
X126938449Y-100321562D01*
X126913080Y-100322854D01*
X126909926Y-100322974D01*
X126890856Y-100323459D01*
X126887703Y-100323499D01*
X125848000Y-100323499D01*
X124850000Y-100323499D01*
X124850000Y-100161304D01*
X128662000Y-100161304D01*
X128662000Y-100338695D01*
X128696603Y-100512658D01*
X128696606Y-100512667D01*
X128764483Y-100676540D01*
X128764490Y-100676553D01*
X128863035Y-100824034D01*
X128863038Y-100824038D01*
X128988461Y-100949461D01*
X128988465Y-100949464D01*
X129135946Y-101048009D01*
X129135959Y-101048016D01*
X129258863Y-101098923D01*
X129299834Y-101115894D01*
X129299836Y-101115894D01*
X129299841Y-101115896D01*
X129473804Y-101150499D01*
X129473807Y-101150500D01*
X129473809Y-101150500D01*
X129527047Y-101150500D01*
X129594086Y-101170185D01*
X129614728Y-101186819D01*
X129788762Y-101360854D01*
X129788765Y-101360857D01*
X129856911Y-101406390D01*
X129891214Y-101429311D01*
X130005048Y-101476463D01*
X130106618Y-101496666D01*
X130125888Y-101500499D01*
X130125892Y-101500500D01*
X130125893Y-101500500D01*
X130125894Y-101500500D01*
X131000639Y-101500500D01*
X131067678Y-101520185D01*
X131088321Y-101536820D01*
X131125961Y-101574461D01*
X131125965Y-101574464D01*
X131273446Y-101673009D01*
X131273459Y-101673016D01*
X131396363Y-101723923D01*
X131437334Y-101740894D01*
X131437336Y-101740894D01*
X131437341Y-101740896D01*
X131611304Y-101775499D01*
X131611307Y-101775500D01*
X131611309Y-101775500D01*
X131788693Y-101775500D01*
X131788694Y-101775499D01*
X131846682Y-101763964D01*
X131962658Y-101740896D01*
X131962661Y-101740894D01*
X131962666Y-101740894D01*
X132126547Y-101673013D01*
X132274035Y-101574464D01*
X132399464Y-101449035D01*
X132498013Y-101301547D01*
X132565894Y-101137666D01*
X132570225Y-101115896D01*
X132600499Y-100963695D01*
X132600500Y-100963693D01*
X132600500Y-100786306D01*
X132600499Y-100786304D01*
X132565896Y-100612341D01*
X132565893Y-100612332D01*
X132498016Y-100448459D01*
X132498009Y-100448446D01*
X132399464Y-100300965D01*
X132399461Y-100300961D01*
X132274038Y-100175538D01*
X132274034Y-100175535D01*
X132126553Y-100076990D01*
X132126540Y-100076983D01*
X131962667Y-100009106D01*
X131962658Y-100009103D01*
X131788694Y-99974500D01*
X131788691Y-99974500D01*
X131611309Y-99974500D01*
X131611306Y-99974500D01*
X131437341Y-100009103D01*
X131437332Y-100009106D01*
X131273459Y-100076983D01*
X131273446Y-100076990D01*
X131125965Y-100175535D01*
X131125961Y-100175538D01*
X131088321Y-100213180D01*
X131026999Y-100246666D01*
X131000639Y-100249500D01*
X130582307Y-100249500D01*
X130515268Y-100229815D01*
X130469513Y-100177011D01*
X130460690Y-100149692D01*
X130430838Y-99999623D01*
X130428394Y-99987334D01*
X130402588Y-99925032D01*
X133348000Y-99925032D01*
X133363627Y-99951106D01*
X133366627Y-99956401D01*
X133389729Y-99999623D01*
X133392466Y-100005062D01*
X133408206Y-100038344D01*
X133410671Y-100043905D01*
X133497301Y-100253051D01*
X133499491Y-100258728D01*
X133511890Y-100293380D01*
X133513798Y-100299155D01*
X133528025Y-100346048D01*
X133529649Y-100351916D01*
X133538601Y-100387651D01*
X133539935Y-100393592D01*
X133584104Y-100615643D01*
X133585145Y-100621640D01*
X133590549Y-100658071D01*
X133591294Y-100664112D01*
X133596097Y-100712884D01*
X133596545Y-100718954D01*
X133598053Y-100749667D01*
X134850000Y-100749667D01*
X135848000Y-100749667D01*
X137350000Y-100749667D01*
X138348000Y-100749667D01*
X139188695Y-100749667D01*
X139160723Y-100573059D01*
X139160056Y-100568236D01*
X139156596Y-100539003D01*
X139156119Y-100534165D01*
X139153041Y-100495086D01*
X139152754Y-100490221D01*
X139151596Y-100460769D01*
X139151500Y-100455897D01*
X139151500Y-100223713D01*
X140149500Y-100223713D01*
X140149500Y-100436287D01*
X140182754Y-100646243D01*
X140241881Y-100828217D01*
X140248444Y-100848414D01*
X140344951Y-101037820D01*
X140469890Y-101209786D01*
X140620213Y-101360109D01*
X140792179Y-101485048D01*
X140792181Y-101485049D01*
X140792184Y-101485051D01*
X140981588Y-101581557D01*
X141183757Y-101647246D01*
X141393713Y-101680500D01*
X141393714Y-101680500D01*
X141606286Y-101680500D01*
X141606287Y-101680500D01*
X141816243Y-101647246D01*
X142018412Y-101581557D01*
X142207816Y-101485051D01*
X142257388Y-101449035D01*
X142379786Y-101360109D01*
X142379788Y-101360106D01*
X142379792Y-101360104D01*
X142530104Y-101209792D01*
X142530106Y-101209788D01*
X142530109Y-101209786D01*
X142655048Y-101037820D01*
X142655047Y-101037820D01*
X142655051Y-101037816D01*
X142751557Y-100848412D01*
X142817246Y-100646243D01*
X142850500Y-100436287D01*
X142850500Y-100223713D01*
X142817246Y-100013757D01*
X142751557Y-99811588D01*
X142655051Y-99622184D01*
X142655049Y-99622181D01*
X142655048Y-99622179D01*
X142530109Y-99450213D01*
X142416181Y-99336285D01*
X142382696Y-99274962D01*
X142387680Y-99205270D01*
X142429552Y-99149337D01*
X142460529Y-99132422D01*
X142592086Y-99083354D01*
X142592093Y-99083350D01*
X142707187Y-98997190D01*
X142707190Y-98997187D01*
X142793350Y-98882093D01*
X142793354Y-98882086D01*
X142843596Y-98747379D01*
X142843598Y-98747372D01*
X142849999Y-98687844D01*
X142850000Y-98687827D01*
X142850000Y-98040000D01*
X141933012Y-98040000D01*
X141965925Y-97982993D01*
X142000000Y-97855826D01*
X142000000Y-97724174D01*
X141965925Y-97597007D01*
X141933012Y-97540000D01*
X142850000Y-97540000D01*
X142850000Y-96892172D01*
X142849999Y-96892155D01*
X142843598Y-96832627D01*
X142843596Y-96832620D01*
X142793354Y-96697913D01*
X142793350Y-96697906D01*
X142707190Y-96582812D01*
X142707187Y-96582809D01*
X142592093Y-96496649D01*
X142592086Y-96496645D01*
X142457379Y-96446403D01*
X142457372Y-96446401D01*
X142397844Y-96440000D01*
X141750000Y-96440000D01*
X141750000Y-97356988D01*
X141692993Y-97324075D01*
X141565826Y-97290000D01*
X141434174Y-97290000D01*
X141307007Y-97324075D01*
X141250000Y-97356988D01*
X141250000Y-96440000D01*
X140602155Y-96440000D01*
X140542627Y-96446401D01*
X140542620Y-96446403D01*
X140407913Y-96496645D01*
X140407906Y-96496649D01*
X140292812Y-96582809D01*
X140292809Y-96582812D01*
X140206649Y-96697906D01*
X140206645Y-96697913D01*
X140156403Y-96832620D01*
X140156401Y-96832627D01*
X140150000Y-96892155D01*
X140150000Y-97540000D01*
X141066988Y-97540000D01*
X141034075Y-97597007D01*
X141000000Y-97724174D01*
X141000000Y-97855826D01*
X141034075Y-97982993D01*
X141066988Y-98040000D01*
X140150000Y-98040000D01*
X140150000Y-98687844D01*
X140156401Y-98747372D01*
X140156403Y-98747379D01*
X140206645Y-98882086D01*
X140206649Y-98882093D01*
X140292809Y-98997187D01*
X140292812Y-98997190D01*
X140407906Y-99083350D01*
X140407913Y-99083354D01*
X140539470Y-99132422D01*
X140595404Y-99174293D01*
X140619821Y-99239758D01*
X140604969Y-99308031D01*
X140583819Y-99336285D01*
X140469889Y-99450215D01*
X140344951Y-99622179D01*
X140248444Y-99811585D01*
X140182753Y-100013760D01*
X140157130Y-100175538D01*
X140149500Y-100223713D01*
X139151500Y-100223713D01*
X139151500Y-100204103D01*
X139151596Y-100199231D01*
X139152754Y-100169779D01*
X139153041Y-100164914D01*
X139156119Y-100125835D01*
X139156596Y-100120997D01*
X139160056Y-100091764D01*
X139160723Y-100086941D01*
X139200108Y-99838272D01*
X139200964Y-99833477D01*
X139206713Y-99804577D01*
X139207758Y-99799817D01*
X139216911Y-99761700D01*
X139218138Y-99756995D01*
X139226131Y-99728653D01*
X139227545Y-99723993D01*
X139305342Y-99484560D01*
X139306936Y-99479963D01*
X139317121Y-99452353D01*
X139318893Y-99447825D01*
X139333891Y-99411608D01*
X139335846Y-99407139D01*
X139345188Y-99386871D01*
X139313638Y-99329091D01*
X139309677Y-99321177D01*
X139287419Y-99272441D01*
X139284030Y-99264261D01*
X139277841Y-99247667D01*
X138348000Y-99247667D01*
X138348000Y-100749667D01*
X137350000Y-100749667D01*
X137350000Y-99247667D01*
X135848000Y-99247667D01*
X135848000Y-100749667D01*
X134850000Y-100749667D01*
X134850000Y-99247667D01*
X133348000Y-99247667D01*
X133348000Y-99925032D01*
X130402588Y-99925032D01*
X130396321Y-99909901D01*
X130360516Y-99823459D01*
X130360509Y-99823446D01*
X130261964Y-99675965D01*
X130261961Y-99675961D01*
X130136538Y-99550538D01*
X130136534Y-99550535D01*
X129989053Y-99451990D01*
X129989040Y-99451983D01*
X129825167Y-99384106D01*
X129825158Y-99384103D01*
X129651194Y-99349500D01*
X129651191Y-99349500D01*
X129473809Y-99349500D01*
X129473806Y-99349500D01*
X129299841Y-99384103D01*
X129299832Y-99384106D01*
X129135959Y-99451983D01*
X129135946Y-99451990D01*
X128988465Y-99550535D01*
X128988461Y-99550538D01*
X128863038Y-99675961D01*
X128863035Y-99675965D01*
X128764490Y-99823446D01*
X128764483Y-99823459D01*
X128696606Y-99987332D01*
X128696603Y-99987341D01*
X128662000Y-100161304D01*
X124850000Y-100161304D01*
X124850000Y-100089651D01*
X124707697Y-100001879D01*
X124701667Y-99997913D01*
X124665907Y-99972872D01*
X124660123Y-99968566D01*
X124614556Y-99932536D01*
X124609029Y-99927898D01*
X124576431Y-99898887D01*
X124571187Y-99893939D01*
X124406061Y-99728813D01*
X124401113Y-99723569D01*
X124372102Y-99690971D01*
X124367464Y-99685444D01*
X124331434Y-99639877D01*
X124327128Y-99634093D01*
X124302087Y-99598333D01*
X124298121Y-99592303D01*
X124175519Y-99393532D01*
X124171912Y-99387285D01*
X124151194Y-99348860D01*
X124147956Y-99342413D01*
X124123409Y-99289768D01*
X124120553Y-99283146D01*
X124106459Y-99247667D01*
X123348000Y-99247667D01*
X123348000Y-100749667D01*
X122350000Y-100749667D01*
X122350000Y-99247667D01*
X120848000Y-99247667D01*
X120848000Y-100749667D01*
X119850000Y-100749667D01*
X119850000Y-99993162D01*
X119841344Y-99998467D01*
X119837144Y-100000929D01*
X119811448Y-100015319D01*
X119807155Y-100017614D01*
X119589827Y-100128349D01*
X119585443Y-100130475D01*
X119558667Y-100142818D01*
X119554200Y-100144772D01*
X119517984Y-100159770D01*
X119513453Y-100161543D01*
X119485844Y-100171727D01*
X119481250Y-100173320D01*
X119249283Y-100248692D01*
X119244620Y-100250106D01*
X119216241Y-100258109D01*
X119211522Y-100259340D01*
X119173403Y-100268488D01*
X119168652Y-100269530D01*
X119139789Y-100275270D01*
X119135001Y-100276125D01*
X118894125Y-100314277D01*
X118889301Y-100314945D01*
X118860067Y-100318405D01*
X118855230Y-100318881D01*
X118816151Y-100321959D01*
X118811286Y-100322246D01*
X118781834Y-100323404D01*
X118776962Y-100323500D01*
X118533038Y-100323500D01*
X118528166Y-100323404D01*
X118498714Y-100322246D01*
X118493849Y-100321959D01*
X118454770Y-100318881D01*
X118449933Y-100318405D01*
X118420699Y-100314945D01*
X118415874Y-100314277D01*
X118348000Y-100303526D01*
X116775000Y-100303526D01*
X116775000Y-100203753D01*
X116741757Y-99993872D01*
X116741757Y-99993869D01*
X116676095Y-99791782D01*
X116579624Y-99602449D01*
X116540270Y-99548282D01*
X116540269Y-99548282D01*
X115907962Y-100180590D01*
X115890925Y-100117007D01*
X115825099Y-100002993D01*
X115732007Y-99909901D01*
X115617993Y-99844075D01*
X115554409Y-99827037D01*
X116186716Y-99194728D01*
X116132550Y-99155375D01*
X115943217Y-99058904D01*
X115741129Y-98993242D01*
X115531246Y-98960000D01*
X115318754Y-98960000D01*
X115108872Y-98993242D01*
X115108869Y-98993242D01*
X114906782Y-99058904D01*
X114717439Y-99155380D01*
X114663282Y-99194727D01*
X114663282Y-99194728D01*
X115295591Y-99827037D01*
X115232007Y-99844075D01*
X115117993Y-99909901D01*
X115024901Y-100002993D01*
X114959075Y-100117007D01*
X114942037Y-100180591D01*
X114309728Y-99548282D01*
X114309727Y-99548282D01*
X114270380Y-99602439D01*
X114173904Y-99791782D01*
X114108242Y-99993869D01*
X114108242Y-99993872D01*
X114075000Y-100203753D01*
X114075000Y-100416246D01*
X114108242Y-100626127D01*
X114108242Y-100626130D01*
X114173904Y-100828217D01*
X114270375Y-101017550D01*
X114309728Y-101071716D01*
X114942037Y-100439408D01*
X114959075Y-100502993D01*
X115024901Y-100617007D01*
X115117993Y-100710099D01*
X115232007Y-100775925D01*
X115295590Y-100792962D01*
X114625370Y-101463181D01*
X114564047Y-101496666D01*
X114537698Y-101499500D01*
X114527134Y-101499500D01*
X114527123Y-101499501D01*
X114467516Y-101505908D01*
X114332671Y-101556202D01*
X114332664Y-101556206D01*
X114217455Y-101642452D01*
X114217452Y-101642455D01*
X114131206Y-101757664D01*
X114131202Y-101757671D01*
X114080908Y-101892517D01*
X114074501Y-101952116D01*
X114074501Y-101952123D01*
X114074500Y-101952135D01*
X113100000Y-101952135D01*
X113100000Y-95777135D01*
X114074500Y-95777135D01*
X114074500Y-97572870D01*
X114074501Y-97572876D01*
X114080908Y-97632483D01*
X114131202Y-97767328D01*
X114131206Y-97767335D01*
X114217452Y-97882544D01*
X114217455Y-97882547D01*
X114332664Y-97968793D01*
X114332671Y-97968797D01*
X114467517Y-98019091D01*
X114467516Y-98019091D01*
X114474444Y-98019835D01*
X114527127Y-98025500D01*
X116322872Y-98025499D01*
X116382483Y-98019091D01*
X116517331Y-97968796D01*
X116578977Y-97922648D01*
X117354500Y-97922648D01*
X117354500Y-98127351D01*
X117386522Y-98329534D01*
X117449781Y-98524223D01*
X117501135Y-98625009D01*
X117533151Y-98687844D01*
X117542715Y-98706613D01*
X117663028Y-98872213D01*
X117807786Y-99016971D01*
X117962749Y-99129556D01*
X117973390Y-99137287D01*
X118047306Y-99174949D01*
X118155776Y-99230218D01*
X118155778Y-99230218D01*
X118155781Y-99230220D01*
X118246856Y-99259812D01*
X118350465Y-99293477D01*
X118390993Y-99299896D01*
X118552648Y-99325500D01*
X118552649Y-99325500D01*
X118757351Y-99325500D01*
X118757352Y-99325500D01*
X118959534Y-99293477D01*
X119154219Y-99230220D01*
X119336610Y-99137287D01*
X119465482Y-99043657D01*
X119502213Y-99016971D01*
X119502215Y-99016968D01*
X119502219Y-99016966D01*
X119646966Y-98872219D01*
X119646968Y-98872215D01*
X119646971Y-98872213D01*
X119699732Y-98799590D01*
X119767287Y-98706610D01*
X119860220Y-98524219D01*
X119923477Y-98329534D01*
X119955500Y-98127352D01*
X119955500Y-97922648D01*
X119933777Y-97785495D01*
X119923477Y-97720465D01*
X119866464Y-97544999D01*
X119860220Y-97525781D01*
X119860218Y-97525778D01*
X119860218Y-97525776D01*
X119808865Y-97424991D01*
X119767287Y-97343390D01*
X119762105Y-97336258D01*
X120848000Y-97336258D01*
X120878692Y-97430717D01*
X120880106Y-97435380D01*
X120888109Y-97463759D01*
X120889340Y-97468478D01*
X120898488Y-97506597D01*
X120899530Y-97511348D01*
X120905270Y-97540211D01*
X120906125Y-97544999D01*
X120944277Y-97785875D01*
X120944945Y-97790699D01*
X120948405Y-97819933D01*
X120948881Y-97824770D01*
X120951959Y-97863849D01*
X120952246Y-97868714D01*
X120953404Y-97898166D01*
X120953500Y-97903038D01*
X120953500Y-98146962D01*
X120953404Y-98151834D01*
X120952246Y-98181286D01*
X120951959Y-98186151D01*
X120948881Y-98225230D01*
X120948405Y-98230067D01*
X120946085Y-98249667D01*
X122350000Y-98249667D01*
X123348000Y-98249667D01*
X123976501Y-98249667D01*
X123976500Y-97424983D01*
X124974500Y-97424983D01*
X124974500Y-98625001D01*
X124974501Y-98625018D01*
X124985000Y-98727796D01*
X124985001Y-98727799D01*
X125032856Y-98872213D01*
X125040186Y-98894334D01*
X125132288Y-99043656D01*
X125256344Y-99167712D01*
X125405666Y-99259814D01*
X125572203Y-99314999D01*
X125674991Y-99325500D01*
X126875008Y-99325499D01*
X126977797Y-99314999D01*
X127144334Y-99259814D01*
X127293656Y-99167712D01*
X127417712Y-99043656D01*
X127509814Y-98894334D01*
X127564999Y-98727797D01*
X127575500Y-98625009D01*
X127575500Y-98249667D01*
X133348000Y-98249667D01*
X134850000Y-98249667D01*
X135848000Y-98249667D01*
X137350000Y-98249667D01*
X138348000Y-98249667D01*
X139152000Y-98249667D01*
X139152000Y-97839454D01*
X139161439Y-97792002D01*
X139162268Y-97790000D01*
X139161439Y-97787998D01*
X139152000Y-97740546D01*
X139152000Y-96878823D01*
X139152044Y-96875509D01*
X139152580Y-96855461D01*
X139152713Y-96852145D01*
X139154142Y-96825458D01*
X139154364Y-96822144D01*
X139155977Y-96802095D01*
X139156289Y-96798783D01*
X139161785Y-96747667D01*
X138348000Y-96747667D01*
X138348000Y-98249667D01*
X137350000Y-98249667D01*
X137350000Y-96747667D01*
X135848000Y-96747667D01*
X135848000Y-98249667D01*
X134850000Y-98249667D01*
X134850000Y-96821947D01*
X134688840Y-96847473D01*
X134669442Y-96849000D01*
X134480558Y-96849000D01*
X134461160Y-96847473D01*
X134274601Y-96817925D01*
X134255681Y-96813383D01*
X134076042Y-96755015D01*
X134058302Y-96747667D01*
X133348000Y-96747667D01*
X133348000Y-98249667D01*
X127575500Y-98249667D01*
X127575499Y-97424992D01*
X127571914Y-97389901D01*
X127564999Y-97322203D01*
X127564998Y-97322200D01*
X127554328Y-97290000D01*
X127509814Y-97155666D01*
X127417712Y-97006344D01*
X127293656Y-96882288D01*
X127210347Y-96830903D01*
X129374500Y-96830903D01*
X129374500Y-97008294D01*
X129409103Y-97182257D01*
X129409106Y-97182266D01*
X129476983Y-97346139D01*
X129476990Y-97346152D01*
X129575535Y-97493633D01*
X129575538Y-97493637D01*
X129700961Y-97619060D01*
X129700965Y-97619063D01*
X129848446Y-97717608D01*
X129848459Y-97717615D01*
X129968479Y-97767328D01*
X130012334Y-97785493D01*
X130012336Y-97785493D01*
X130012341Y-97785495D01*
X130186304Y-97820098D01*
X130186307Y-97820099D01*
X130186309Y-97820099D01*
X130363693Y-97820099D01*
X130363694Y-97820098D01*
X130421682Y-97808563D01*
X130537658Y-97785495D01*
X130537661Y-97785493D01*
X130537666Y-97785493D01*
X130701547Y-97717612D01*
X130849035Y-97619063D01*
X130974464Y-97493634D01*
X131073013Y-97346146D01*
X131140894Y-97182265D01*
X131175500Y-97008290D01*
X131175500Y-96981049D01*
X131195185Y-96914010D01*
X131211819Y-96893368D01*
X131440848Y-96664339D01*
X131502171Y-96630854D01*
X131528529Y-96628020D01*
X131581770Y-96628020D01*
X131581771Y-96628019D01*
X131639759Y-96616484D01*
X131755735Y-96593416D01*
X131755738Y-96593414D01*
X131755743Y-96593414D01*
X131919624Y-96525533D01*
X132067112Y-96426984D01*
X132192541Y-96301555D01*
X132291090Y-96154067D01*
X132358971Y-95990186D01*
X132360445Y-95982780D01*
X132393576Y-95816215D01*
X132393577Y-95816213D01*
X132393577Y-95638826D01*
X132393576Y-95638824D01*
X132358973Y-95464861D01*
X132358970Y-95464852D01*
X132344276Y-95429378D01*
X132342000Y-95423883D01*
X132291093Y-95300979D01*
X132291086Y-95300966D01*
X132195782Y-95158336D01*
X135848000Y-95158336D01*
X135863383Y-95205681D01*
X135867925Y-95224601D01*
X135897473Y-95411160D01*
X135899000Y-95430558D01*
X135899000Y-95619442D01*
X135897473Y-95638840D01*
X135879920Y-95749667D01*
X137350000Y-95749667D01*
X138348000Y-95749667D01*
X139740423Y-95749667D01*
X139838368Y-95676345D01*
X139845638Y-95671297D01*
X139850000Y-95668493D01*
X139850000Y-95442000D01*
X140848000Y-95442000D01*
X141450546Y-95442000D01*
X141497998Y-95451439D01*
X141500000Y-95452268D01*
X141502002Y-95451439D01*
X141549454Y-95442000D01*
X142350000Y-95442000D01*
X142350000Y-94247667D01*
X140848000Y-94247667D01*
X140848000Y-95442000D01*
X139850000Y-95442000D01*
X139850000Y-94247667D01*
X138348000Y-94247667D01*
X138348000Y-95749667D01*
X137350000Y-95749667D01*
X137350000Y-94247667D01*
X135848000Y-94247667D01*
X135848000Y-95158336D01*
X132195782Y-95158336D01*
X132192541Y-95153485D01*
X132192538Y-95153481D01*
X132067115Y-95028058D01*
X132067111Y-95028055D01*
X131919630Y-94929510D01*
X131919617Y-94929503D01*
X131755744Y-94861626D01*
X131755735Y-94861623D01*
X131581771Y-94827020D01*
X131581768Y-94827020D01*
X131404386Y-94827020D01*
X131404383Y-94827020D01*
X131230418Y-94861623D01*
X131230409Y-94861626D01*
X131066536Y-94929503D01*
X131066523Y-94929510D01*
X130919042Y-95028055D01*
X130919038Y-95028058D01*
X130793615Y-95153481D01*
X130793612Y-95153485D01*
X130695067Y-95300966D01*
X130695060Y-95300979D01*
X130627183Y-95464852D01*
X130627180Y-95464861D01*
X130592577Y-95638824D01*
X130592577Y-95692068D01*
X130572892Y-95759107D01*
X130556258Y-95779749D01*
X130353227Y-95982780D01*
X130291904Y-96016265D01*
X130265546Y-96019099D01*
X130186306Y-96019099D01*
X130012341Y-96053702D01*
X130012332Y-96053705D01*
X129848459Y-96121582D01*
X129848446Y-96121589D01*
X129700965Y-96220134D01*
X129700961Y-96220137D01*
X129575538Y-96345560D01*
X129575535Y-96345564D01*
X129476990Y-96493045D01*
X129476983Y-96493058D01*
X129409106Y-96656931D01*
X129409103Y-96656940D01*
X129374500Y-96830903D01*
X127210347Y-96830903D01*
X127200888Y-96825069D01*
X127144336Y-96790187D01*
X127144331Y-96790185D01*
X127142862Y-96789698D01*
X126977797Y-96735001D01*
X126977795Y-96735000D01*
X126875010Y-96724500D01*
X125674998Y-96724500D01*
X125674981Y-96724501D01*
X125572203Y-96735000D01*
X125572200Y-96735001D01*
X125405668Y-96790185D01*
X125405663Y-96790187D01*
X125256342Y-96882289D01*
X125132289Y-97006342D01*
X125040187Y-97155663D01*
X125040185Y-97155668D01*
X125029812Y-97186972D01*
X124985001Y-97322203D01*
X124985001Y-97322204D01*
X124985000Y-97322204D01*
X124974500Y-97424983D01*
X123976500Y-97424983D01*
X123976500Y-97412296D01*
X123976540Y-97409143D01*
X123977025Y-97390073D01*
X123977145Y-97386920D01*
X123978437Y-97361549D01*
X123978638Y-97358398D01*
X123980095Y-97339349D01*
X123980376Y-97336204D01*
X123994936Y-97193681D01*
X123995807Y-97186972D01*
X124002181Y-97146543D01*
X124003416Y-97139892D01*
X124014818Y-97086641D01*
X124016413Y-97080074D01*
X124027144Y-97040600D01*
X124029095Y-97034125D01*
X124101977Y-96814182D01*
X124104444Y-96807404D01*
X124120554Y-96766853D01*
X124123409Y-96760234D01*
X124129269Y-96747667D01*
X123348000Y-96747667D01*
X123348000Y-98249667D01*
X122350000Y-98249667D01*
X122350000Y-96747667D01*
X120848000Y-96747667D01*
X120848000Y-97336258D01*
X119762105Y-97336258D01*
X119751892Y-97322200D01*
X119646971Y-97177786D01*
X119502213Y-97033028D01*
X119336613Y-96912715D01*
X119336612Y-96912714D01*
X119336610Y-96912713D01*
X119263593Y-96875509D01*
X119154223Y-96819781D01*
X118959534Y-96756522D01*
X118784995Y-96728878D01*
X118757352Y-96724500D01*
X118552648Y-96724500D01*
X118528329Y-96728351D01*
X118350465Y-96756522D01*
X118155776Y-96819781D01*
X117973386Y-96912715D01*
X117807786Y-97033028D01*
X117663028Y-97177786D01*
X117542715Y-97343386D01*
X117449781Y-97525776D01*
X117386522Y-97720465D01*
X117354500Y-97922648D01*
X116578977Y-97922648D01*
X116632546Y-97882546D01*
X116718796Y-97767331D01*
X116769091Y-97632483D01*
X116775500Y-97572873D01*
X116775499Y-95777128D01*
X116772204Y-95746473D01*
X118348000Y-95746473D01*
X118415875Y-95735723D01*
X118420699Y-95735055D01*
X118449933Y-95731595D01*
X118454770Y-95731119D01*
X118493849Y-95728041D01*
X118498714Y-95727754D01*
X118528166Y-95726596D01*
X118533038Y-95726500D01*
X118776962Y-95726500D01*
X118781834Y-95726596D01*
X118811286Y-95727754D01*
X118816151Y-95728041D01*
X118855230Y-95731119D01*
X118860067Y-95731595D01*
X118889301Y-95735055D01*
X118894125Y-95735723D01*
X118982162Y-95749667D01*
X119850000Y-95749667D01*
X120848000Y-95749667D01*
X122350000Y-95749667D01*
X123348000Y-95749667D01*
X124850000Y-95749667D01*
X124850000Y-95726500D01*
X125848000Y-95726500D01*
X126887704Y-95726500D01*
X126890857Y-95726540D01*
X126909927Y-95727025D01*
X126913080Y-95727145D01*
X126938451Y-95728437D01*
X126941602Y-95728638D01*
X126960651Y-95730095D01*
X126963796Y-95730376D01*
X127106319Y-95744936D01*
X127113028Y-95745807D01*
X127137511Y-95749667D01*
X127350000Y-95749667D01*
X128348000Y-95749667D01*
X128774778Y-95749667D01*
X128784779Y-95736182D01*
X128788524Y-95731384D01*
X128819613Y-95693502D01*
X128823587Y-95688895D01*
X128848318Y-95661608D01*
X128852516Y-95657199D01*
X129012600Y-95497115D01*
X129017009Y-95492917D01*
X129044296Y-95468186D01*
X129048903Y-95464212D01*
X129086785Y-95433123D01*
X129091583Y-95429378D01*
X129121155Y-95407446D01*
X129126131Y-95403942D01*
X129314368Y-95278165D01*
X129319512Y-95274908D01*
X129351106Y-95255972D01*
X129356401Y-95252972D01*
X129399623Y-95229870D01*
X129405062Y-95227133D01*
X129438344Y-95211393D01*
X129443905Y-95208928D01*
X129653051Y-95122298D01*
X129658728Y-95120108D01*
X129693380Y-95107709D01*
X129695180Y-95107114D01*
X129695776Y-95105571D01*
X129782406Y-94896425D01*
X129784871Y-94890864D01*
X129800611Y-94857582D01*
X129803348Y-94852143D01*
X129826450Y-94808921D01*
X129829450Y-94803626D01*
X129848386Y-94772032D01*
X129850000Y-94769482D01*
X129850000Y-94247667D01*
X128348000Y-94247667D01*
X128348000Y-95749667D01*
X127350000Y-95749667D01*
X127350000Y-94247667D01*
X125848000Y-94247667D01*
X125848000Y-95726500D01*
X124850000Y-95726500D01*
X124850000Y-94247667D01*
X123348000Y-94247667D01*
X123348000Y-95749667D01*
X122350000Y-95749667D01*
X122350000Y-94247667D01*
X120848000Y-94247667D01*
X120848000Y-95749667D01*
X119850000Y-95749667D01*
X119850000Y-94247667D01*
X118348000Y-94247667D01*
X118348000Y-95746473D01*
X116772204Y-95746473D01*
X116769091Y-95717517D01*
X116750806Y-95668493D01*
X116718797Y-95582671D01*
X116718793Y-95582664D01*
X116632547Y-95467455D01*
X116632544Y-95467452D01*
X116517335Y-95381206D01*
X116517328Y-95381202D01*
X116382482Y-95330908D01*
X116382483Y-95330908D01*
X116322883Y-95324501D01*
X116322881Y-95324500D01*
X116322873Y-95324500D01*
X116322865Y-95324500D01*
X116312309Y-95324500D01*
X116245270Y-95304815D01*
X116224628Y-95288181D01*
X115554408Y-94617962D01*
X115617993Y-94600925D01*
X115732007Y-94535099D01*
X115825099Y-94442007D01*
X115890925Y-94327993D01*
X115907962Y-94264409D01*
X116540270Y-94896717D01*
X116540270Y-94896716D01*
X116579622Y-94842554D01*
X116676095Y-94653217D01*
X116741757Y-94451130D01*
X116741757Y-94451127D01*
X116775000Y-94241246D01*
X116775000Y-94028753D01*
X116741757Y-93818872D01*
X116741757Y-93818869D01*
X116676095Y-93616782D01*
X116579624Y-93427449D01*
X116540270Y-93373282D01*
X116540269Y-93373282D01*
X115907962Y-94005590D01*
X115890925Y-93942007D01*
X115825099Y-93827993D01*
X115732007Y-93734901D01*
X115617993Y-93669075D01*
X115554409Y-93652037D01*
X115956778Y-93249667D01*
X118348000Y-93249667D01*
X119850000Y-93249667D01*
X120848000Y-93249667D01*
X122350000Y-93249667D01*
X123348000Y-93249667D01*
X124850000Y-93249667D01*
X125848000Y-93249667D01*
X127350000Y-93249667D01*
X128348000Y-93249667D01*
X129850000Y-93249667D01*
X130848000Y-93249667D01*
X132350000Y-93249667D01*
X133348000Y-93249667D01*
X134850000Y-93249667D01*
X135848000Y-93249667D01*
X137350000Y-93249667D01*
X138348000Y-93249667D01*
X139850000Y-93249667D01*
X140848000Y-93249667D01*
X142350000Y-93249667D01*
X142350000Y-92539576D01*
X142308091Y-92497667D01*
X140848000Y-92497667D01*
X140848000Y-93249667D01*
X139850000Y-93249667D01*
X139850000Y-92497667D01*
X138348000Y-92497667D01*
X138348000Y-93249667D01*
X137350000Y-93249667D01*
X137350000Y-92497667D01*
X135848000Y-92497667D01*
X135848000Y-93249667D01*
X134850000Y-93249667D01*
X134850000Y-92497667D01*
X133348000Y-92497667D01*
X133348000Y-93249667D01*
X132350000Y-93249667D01*
X132350000Y-92497667D01*
X130848000Y-92497667D01*
X130848000Y-93249667D01*
X129850000Y-93249667D01*
X129850000Y-92497667D01*
X128348000Y-92497667D01*
X128348000Y-93249667D01*
X127350000Y-93249667D01*
X127350000Y-92497667D01*
X125848000Y-92497667D01*
X125848000Y-93249667D01*
X124850000Y-93249667D01*
X124850000Y-92497667D01*
X123348000Y-92497667D01*
X123348000Y-93249667D01*
X122350000Y-93249667D01*
X122350000Y-92497667D01*
X120848000Y-92497667D01*
X120848000Y-93249667D01*
X119850000Y-93249667D01*
X119850000Y-92497667D01*
X118348000Y-92497667D01*
X118348000Y-93249667D01*
X115956778Y-93249667D01*
X116186716Y-93019728D01*
X116132550Y-92980375D01*
X115943217Y-92883904D01*
X115741129Y-92818242D01*
X115531246Y-92785000D01*
X115318754Y-92785000D01*
X115108872Y-92818242D01*
X115108869Y-92818242D01*
X114906782Y-92883904D01*
X114717439Y-92980380D01*
X114663282Y-93019727D01*
X114663282Y-93019728D01*
X115295591Y-93652037D01*
X115232007Y-93669075D01*
X115117993Y-93734901D01*
X115024901Y-93827993D01*
X114959075Y-93942007D01*
X114942037Y-94005591D01*
X114309728Y-93373282D01*
X114309727Y-93373282D01*
X114270380Y-93427439D01*
X114173904Y-93616782D01*
X114108242Y-93818869D01*
X114108242Y-93818872D01*
X114075000Y-94028753D01*
X114075000Y-94241246D01*
X114108242Y-94451127D01*
X114108242Y-94451130D01*
X114173904Y-94653217D01*
X114270375Y-94842550D01*
X114309728Y-94896716D01*
X114942037Y-94264408D01*
X114959075Y-94327993D01*
X115024901Y-94442007D01*
X115117993Y-94535099D01*
X115232007Y-94600925D01*
X115295590Y-94617962D01*
X114625370Y-95288181D01*
X114564047Y-95321666D01*
X114537698Y-95324500D01*
X114527134Y-95324500D01*
X114527123Y-95324501D01*
X114467516Y-95330908D01*
X114332671Y-95381202D01*
X114332664Y-95381206D01*
X114217455Y-95467452D01*
X114217452Y-95467455D01*
X114131206Y-95582664D01*
X114131202Y-95582671D01*
X114080908Y-95717517D01*
X114077452Y-95749667D01*
X114074501Y-95777123D01*
X114074500Y-95777135D01*
X113100000Y-95777135D01*
X113100000Y-92527796D01*
X113113515Y-92471501D01*
X113186049Y-92329145D01*
X113186050Y-92329142D01*
X113204276Y-92273047D01*
X113240426Y-92161788D01*
X113267954Y-91987985D01*
X113267954Y-91908408D01*
X113287639Y-91841369D01*
X113304273Y-91820727D01*
X113589014Y-91535986D01*
X113650337Y-91502501D01*
X113676695Y-91499667D01*
X142848305Y-91499667D01*
X142915344Y-91519352D01*
G37*
%TD.AperFunction*%
%TD*%
M02*
